<?xml version="1.0" encoding="UTF-8"?>
<svg width="370px" height="366px" viewBox="0 0 370 366" version="1.1" xmlns="http://www.w3.org/2000/svg" xmlns:xlink="http://www.w3.org/1999/xlink">
    <!-- Generator: Sketch 57.1 (83088) - https://sketch.com -->
    <title>Group</title>
    <desc>Created with Sketch.</desc>
    <defs>
        <linearGradient x1="8.55318619%" y1="23.9720012%" x2="88.263995%" y2="80.1248354%" id="linearGradient-1">
            <stop stop-color="#02DCFB" offset="0%"></stop>
            <stop stop-color="#145F93" offset="100%"></stop>
        </linearGradient>
        <linearGradient x1="47.9844749%" y1="0%" x2="57.301039%" y2="94.4630377%" id="linearGradient-2">
            <stop stop-color="#2D98C5" stop-opacity="0" offset="0%"></stop>
            <stop stop-color="#217DAD" offset="47.7848734%"></stop>
            <stop stop-color="#145F93" stop-opacity="0" offset="100%"></stop>
        </linearGradient>
        <linearGradient x1="47.6833702%" y1="0%" x2="58.3917608%" y2="94.4630377%" id="linearGradient-3">
            <stop stop-color="#2D98C5" stop-opacity="0" offset="0%"></stop>
            <stop stop-color="#217DAD" offset="47.7848734%"></stop>
            <stop stop-color="#145F93" stop-opacity="0" offset="100%"></stop>
        </linearGradient>
        <linearGradient x1="89.3832577%" y1="74.3213765%" x2="0%" y2="50%" id="linearGradient-4">
            <stop stop-color="#019DCB" offset="0%"></stop>
            <stop stop-color="#0279AB" offset="100%"></stop>
        </linearGradient>
        <linearGradient x1="20.7019188%" y1="85.4825093%" x2="88.5945869%" y2="24.1436541%" id="linearGradient-5">
            <stop stop-color="#F0FBFF" offset="0%"></stop>
            <stop stop-color="#FFFFFF" offset="100%"></stop>
        </linearGradient>
        <polygon id="path-6" points="0 0.377154726 73.898494 0.377154726 73.898494 71.060755 0 71.060755"></polygon>
        <linearGradient x1="50%" y1="0%" x2="50%" y2="100%" id="linearGradient-8">
            <stop stop-color="#F9FDFE" offset="0%"></stop>
            <stop stop-color="#EDFAFF" offset="100%"></stop>
        </linearGradient>
        <linearGradient x1="50%" y1="0%" x2="50%" y2="100%" id="linearGradient-9">
            <stop stop-color="#3394BE" offset="0%"></stop>
            <stop stop-color="#175B89" offset="100%"></stop>
        </linearGradient>
        <linearGradient x1="100%" y1="54.6472564%" x2="0%" y2="38.7765749%" id="linearGradient-10">
            <stop stop-color="#275E8B" offset="0%"></stop>
            <stop stop-color="#113053" offset="100%"></stop>
        </linearGradient>
        <linearGradient x1="96.9544716%" y1="50%" x2="5.61230503%" y2="55.6357621%" id="linearGradient-11">
            <stop stop-color="#186798" offset="0%"></stop>
            <stop stop-color="#0E2B4D" offset="100%"></stop>
        </linearGradient>
        <linearGradient x1="100%" y1="43.5802212%" x2="13.0872481%" y2="62.9480406%" id="linearGradient-12">
            <stop stop-color="#3591CC" offset="0%"></stop>
            <stop stop-color="#0E2B4C" offset="100%"></stop>
        </linearGradient>
        <linearGradient x1="66.1709935%" y1="0%" x2="43.0597791%" y2="87.3471319%" id="linearGradient-13">
            <stop stop-color="#1073A2" offset="0%"></stop>
            <stop stop-color="#08ACCF" offset="100%"></stop>
        </linearGradient>
        <linearGradient x1="22.5832764%" y1="60.842613%" x2="82.4875218%" y2="39.157387%" id="linearGradient-14">
            <stop stop-color="#145E93" offset="0%"></stop>
            <stop stop-color="#03D0F2" offset="100%"></stop>
        </linearGradient>
    </defs>
    <g id="Page-1" stroke="none" stroke-width="1" fill="none" fill-rule="evenodd">
        <g id="MH-Learn-1.3" transform="translate(-145.000000, -645.000000)">
            <g id="Group" transform="translate(145.000000, 645.000000)">
                <g id="Group-77" transform="translate(11.000000, 71.000000)">
                    <g id="Group-17" transform="translate(22.000000, 0.000000)">
                        <g id="Group-3" transform="translate(38.375700, 188.289200)">
                            <path d="M-7.10542736e-13,99.6162 C-7.10542736e-13,103.5342 32.317,106.7112 72.184,106.7112 C112.05,106.7112 144.368,103.5342 144.368,99.6162 C144.368,95.6982 112.05,92.5212 72.184,92.5212 C32.317,92.5212 -7.10542736e-13,95.6982 -7.10542736e-13,99.6162" id="Fill-1" fill="#AAD4E1"></path>
                            <path d="M90.0225,2.84217094e-14 L82.1285,101.036 L127.9105,101.036 C127.9105,91.445 120.1355,83.671 110.5445,83.671 L104.9205,83.671 C101.0315,83.671 97.8565,80.556 97.7835,76.666 L96.3365,2.84217094e-14 L90.0225,2.84217094e-14 Z" id="Fill-4" fill="#00274B"></path>
                            <path d="M80.5498,2.84217094e-14 L71.0778,101.036 L26.8738,101.036 C26.8738,91.445 34.6498,83.671 44.2398,83.671 L49.5868,83.671 C52.9228,83.671 55.8138,81.361 56.5498,78.108 L74.2358,2.84217094e-14 L80.5498,2.84217094e-14 Z" id="Fill-6" fill="#00274B"></path>
                        </g>
                        <path d="M227.4685,108.2638 C229.7375,168.9668 178.9305,220.1178 113.9645,220.094808 C48.9985,220.1178 -1.8065,168.9688 0.4605,108.2638 C2.7235,47.4988 53.5325,0.0358 113.9645,-0.0002 C174.3965,0.0368 225.2005,47.4978 227.4685,108.2638" id="Fill-8" fill="url(#linearGradient-1)"></path>
                        <path d="M47.0583,191.4103 C21.9033,171.5143 7.5563,140.1013 8.6823,107.3803 C9.0653,96.2103 11.1003,85.2223 14.7313,74.7203 L16.4363,75.3093 C12.8643,85.6403 10.8613,96.4513 10.4853,107.4423 C9.3793,139.5933 23.4703,170.4543 48.1773,189.9953 L47.0583,191.4103 Z" id="Fill-11" fill="url(#linearGradient-2)"></path>
                        <path d="M54.2283,185.8136 C53.7563,183.9786 53.3203,182.1296 52.9293,180.3196 C52.5943,178.7566 52.3673,177.1556 52.1453,175.6056 L52.1453,175.6016 C51.4763,175.5886 50.7993,175.5746 50.1353,175.5346 L46.3393,175.2056 C44.8173,175.0566 43.2433,174.9046 41.7303,174.6226 L41.0393,174.4936 L40.9953,173.7926 C40.8763,171.9126 40.7933,170.0226 40.7493,168.1736 C40.7593,166.6616 40.8023,165.0946 40.8773,163.3906 C39.5233,163.1016 38.2343,162.7426 36.8823,162.3656 L36.2703,162.1956 C34.5143,161.6996 32.6453,161.1476 30.8493,160.4616 L30.1873,160.2096 L30.2763,159.5056 C30.5083,157.6756 30.7493,155.7836 31.0823,153.9296 C31.3913,152.3626 31.7253,150.8026 32.0793,149.2716 C30.9723,148.8056 29.9293,148.2966 28.8353,147.7636 L25.2563,145.9736 C24.5203,145.5756 23.8273,145.1686 23.1223,144.7576 L22.1573,144.1946 L22.6093,142.7866 C23.1183,141.1946 23.5993,139.6916 24.1943,138.1636 C24.7803,136.6816 25.3903,135.2096 26.0123,133.7726 C24.9883,133.0956 24.0293,132.3876 23.0233,131.6466 L19.9013,129.2936 C19.2643,128.7816 18.6693,128.2696 18.0663,127.7506 L17.1753,126.9856 L17.6833,126.0376 C18.5393,124.4396 19.3463,122.9296 20.2593,121.4256 C21.1053,120.0736 21.9723,118.7346 22.8463,117.4306 C21.9643,116.5946 21.1653,115.7426 20.3283,114.8476 L19.4373,113.8986 C18.2033,112.5586 16.9253,111.1736 15.7973,109.7196 L15.3653,109.1626 L15.8023,108.6076 C16.9693,107.1316 18.1673,105.6706 19.3633,104.2636 C20.3543,103.1256 21.4163,101.9736 22.6033,100.7506 C20.5923,97.9676 18.7003,95.0236 16.9733,91.9896 L16.6183,91.3646 L17.1483,90.8776 C19.7473,88.4986 22.4513,86.2766 25.1953,84.2676 C23.6753,81.1906 22.3013,77.9726 21.1063,74.6906 L22.8003,74.0726 C24.0623,77.5346 25.5253,80.9216 27.1483,84.1436 L27.4963,84.8326 L26.8703,85.2816 C24.1573,87.2316 21.4793,89.3966 18.9013,91.7226 C20.6243,94.7006 22.5093,97.5836 24.5083,100.3006 L24.9633,100.9196 L24.4253,101.4676 C23.0453,102.8716 21.8363,104.1696 20.7303,105.4406 C19.7063,106.6456 18.6743,107.8996 17.6633,109.1676 C18.6353,110.3676 19.7143,111.5386 20.7633,112.6746 L21.6443,113.6146 C22.6333,114.6706 23.5683,115.6676 24.6293,116.6236 L25.2143,117.1486 L24.7733,117.7996 C23.7653,119.2866 22.7633,120.8246 21.7943,122.3736 C20.9753,123.7226 20.2283,125.1056 19.4493,126.5606 C19.9673,127.0056 20.4813,127.4456 21.0123,127.8736 L24.0943,130.1946 C25.2833,131.0716 26.4053,131.8996 27.6263,132.6676 L28.2853,133.0826 L27.9713,133.7936 C27.2513,135.4316 26.5453,137.1236 25.8733,138.8216 C25.3003,140.2936 24.8283,141.7716 24.3273,143.3346 L24.3173,143.3666 C24.9083,143.7116 25.4943,144.0506 26.0933,144.3756 L29.6263,146.1416 C30.9223,146.7736 32.1463,147.3716 33.4623,147.8876 L34.1913,148.1736 L34.0103,148.9356 C33.5963,150.6836 33.2073,152.4756 32.8553,154.2646 C32.5743,155.8236 32.3593,157.4396 32.1573,159.0226 C33.6833,159.5726 35.2623,160.0366 36.7563,160.4586 L37.3673,160.6276 C38.9343,161.0646 40.4153,161.4776 41.9823,161.7726 L42.7543,161.9176 L42.7153,162.7036 C42.6193,164.6886 42.5653,166.4726 42.5523,168.1596 C42.5913,169.7266 42.6593,171.3466 42.7523,172.9676 C43.9833,173.1636 45.2663,173.2886 46.5143,173.4096 L50.2633,173.7346 C50.9573,173.7766 51.6853,173.7896 52.4023,173.8026 L53.7123,173.8286 L53.9313,175.3506 C54.1483,176.8696 54.3723,178.4406 54.6933,179.9406 C55.0793,181.7276 55.5093,183.5526 55.9753,185.3656 L54.2283,185.8136 Z" id="Fill-13" fill="url(#linearGradient-3)"></path>
                        <path d="M218.7615,101.8419 C220.4375,151.2879 179.2745,192.7949 126.8095,192.961618 C74.3415,193.1599 32.8915,151.9399 34.2285,102.4829 C35.5545,52.9859 76.7275,13.9199 126.1865,13.7234721 C175.6455,13.5749 217.0905,52.3549 218.7615,101.8419" id="Fill-15" fill="url(#linearGradient-4)"></path>
                    </g>
                    <path d="M152.852,32.669 C111.658,32.883 77.597,65.426 76.763,106.396 L76.763,106.396 C75.926,147.337 110.309,181.229 153.559,181.011055 L153.559,181.011055 C196.809,180.818 230.866,146.597 229.64,105.666 L229.64,105.666 C228.416,64.82 194.234,32.667 153.195,32.669 L153.195,32.669 C153.082,32.669 152.965,32.669 152.852,32.669" id="Fill-18" fill="url(#linearGradient-5)"></path>
                    <g id="Group-76" transform="translate(0.000000, 28.000000)">
                        <path d="M234.3171,75.3605 C233.0521,33.1495 197.6291,-0.0545 155.1781,0.130722383 C112.7261,0.3505 77.6231,33.8895 76.7631,76.1135 C76.7501,76.7845 76.7711,77.4475 76.7761,78.1135 C77.7611,37.2775 111.7541,4.8815 152.8511,4.6705 C194.0411,4.4895 228.4131,36.7075 229.6401,77.6665 C230.8571,118.2975 197.3011,152.2985 154.5041,152.9835 C154.9731,152.9895 155.4371,153.0135 155.9091,153.010758 C200.4821,152.8115 235.5801,117.5445 234.3171,75.3605" id="Fill-21" fill="#002952" opacity="0.4"></path>
                        <path d="M150.612,8.4015 C191.847,8.2465 226.234,40.4865 227.433,81.4455 C227.767,94.5695 224.539,106.9805 218.547,117.8175 C225.955,106.1285 230.025,92.3405 229.64,77.6665 C228.419,36.7075 194.037,4.4895 152.851,4.6697411 C124.785,4.8105 100.242,19.9005 86.954,42.3975 C100.71,21.9695 124.081,8.5165 150.612,8.4015" id="Fill-23" fill="#E0F3FA"></path>
                        <path d="M138.0154,66.1466 C139.1354,71.7086 135.9394,77.0426 130.8764,78.0626 C125.8144,79.0826 120.8014,75.4006 119.6824,69.8376 C118.5624,64.2766 121.7584,58.9416 126.8214,57.9216 C131.8834,56.9026 136.8954,60.5846 138.0154,66.1466" id="Fill-25" fill="#007CAB"></path>
                        <path d="M197.7458,54.1183 C198.8658,59.6803 195.6698,65.0143 190.6068,66.0343 C185.5448,67.0543 180.5328,63.3723 179.4128,57.8093 C178.2928,52.2483 181.4888,46.9133 186.5518,45.8933 C191.6138,44.8743 196.6268,48.5563 197.7458,54.1183" id="Fill-27" fill="#007CAB"></path>
                        <path d="M184.5124,103.2892 C179.3624,107.4682 173.1514,110.4952 166.1984,111.8952 C150.9554,114.9652 135.9774,109.4412 126.2824,98.6622" id="Stroke-29" stroke="#007CAB" stroke-width="4.93"></path>
                        <path d="M154.3464,76.3546 L161.2654,73.6816 C163.4874,72.8236 164.5924,70.3256 163.7344,68.1026 L157.2734,51.3816" id="Stroke-31" stroke="#007CAB" stroke-width="4.93"></path>
                        <g id="Group-35" transform="translate(0.000000, 125.000000)">
                            <mask id="mask-7" fill="white">
                                <use xlink:href="#path-6"></use>
                            </mask>
                            <g id="Clip-34"></g>
                            <path d="M45.4451,10.0558 L17.7621,32.6938 C15.7461,34.3428 16.8041,37.6088 19.4041,37.7618 L58.6451,40.0778 C65.3291,40.4728 70.8891,45.3558 72.1431,51.9318 L73.7351,60.2728 C74.7531,65.6068 70.8951,70.6358 65.4801,71.0358 C60.8601,71.3768 56.7231,68.1878 55.8781,63.6328 L54.2621,54.9288 L11.8461,52.4128 C0.5041,51.7408 -4.1979,37.5578 4.4981,30.2428 L38.4791,1.6588 C40.5481,-0.0822 43.5771,-0.0452 45.6021,1.7438 C48.1241,3.9708 48.0491,7.9268 45.4451,10.0558" id="Fill-33" fill="#00274B" mask="url(#mask-7)"></path>
                        </g>
                        <g id="certificate" transform="translate(212.839400, 37.170332)">
                            <path d="M36.6291,43.0934678 C36.3631,35.9704678 35.4221,29.0324678 33.8851,22.3294678 L13.9781,22.3294678 C15.6351,28.1224678 16.6121,34.2044678 16.8011,40.4954678 C17.3421,58.5824678 10.9861,75.3524678 0.0001,88.4614678 L0.0001,126.513468 C23.5991,105.858468 37.8541,75.8714678 36.6291,43.0934678" id="Fill-36" fill="#002952" opacity="0.299447"></path>
                            <path d="M16.801,40.4958678 C16.613,34.2048678 15.635,28.1228678 13.978,22.3298678 L-9.9475983e-14,22.3298678 L-9.9475983e-14,88.4618678 C10.987,75.3518678 17.342,58.5828678 16.801,40.4958678" id="Fill-38" fill="#E0F3FA"></path>
                            <path d="M123.2492,164.878668 L21.0642,164.878668 C13.3602,164.878668 7.1142,158.633668 7.1142,150.929668 L7.1142,11.5346678 L123.2492,11.5346678 L123.2492,164.878668 Z" id="Fill-40" fill="url(#linearGradient-8)"></path>
                            <path d="M35.009,143.595468 L35.009,150.932468 C35.009,158.634468 28.765,164.878468 21.062,164.878468 L122.849,164.878468 C130.553,164.878468 136.799,158.633468 136.799,150.929468 L136.799,143.595468 L35.009,143.595468 Z" id="Fill-42" fill="#A3DBEC"></path>
                            <path d="M49.1613,11.5348678 C49.1613,11.5348678 54.3953,-0.736132202 67.8403,0.0348677977 C76.9433,0.555867798 79.2063,6.8278678 79.5083,11.9778678 C79.9403,19.3778678 72.7493,24.9348678 65.7653,22.4558678 C65.6693,22.4228678 65.5743,22.3878678 65.4773,22.3508678 C57.5153,19.3828678 57.8493,11.5798678 57.8493,11.5798678 L49.1613,11.5348678 Z" id="Fill-44" fill="#00274B"></path>
                            <path d="M138.6272,91.4948678 L129.8052,91.4948678 L116.6932,91.4948678 L107.8712,91.4948678 L107.8712,125.894868 C107.8712,126.945868 109.0162,127.597868 109.9192,127.059868 L123.2492,119.131868 L136.5792,127.059868 C137.4822,127.597868 138.6272,126.945868 138.6272,125.894868 L138.6272,91.4948678 Z" id="Fill-46" fill="#A0D301"></path>
                            <path d="M116.6936,91.4948678 L107.8716,91.4948678 L107.8716,101.961868 C111.8616,105.795868 117.2776,108.157868 123.2496,108.157868 C129.2206,108.157868 134.6366,105.795868 138.6276,101.961868 L138.6276,91.4948678 L129.8046,91.4948678 L116.6936,91.4948678 Z" id="Fill-48" fill="#002952" opacity="0.3"></path>
                            <path d="M145.4523,82.2750678 C145.4523,94.5380678 135.5123,104.478068 123.2493,104.478068 C110.9863,104.478068 101.0463,94.5380678 101.0463,82.2750678 C101.0463,70.0120678 110.9863,60.0720678 123.2493,60.0720678 C135.5123,60.0720678 145.4523,70.0120678 145.4523,82.2750678" id="Fill-50" fill="#A0D301"></path>
                            <path d="M140.7014,82.2750678 C140.7014,91.9140678 132.8884,99.7270678 123.2494,99.7270678 C113.6104,99.7270678 105.7974,91.9140678 105.7974,82.2750678 C105.7974,72.6360678 113.6104,64.8230678 123.2494,64.8230678 C132.8884,64.8230678 140.7014,72.6360678 140.7014,82.2750678" id="Fill-52" fill="#FFFFFF"></path>
                            <path d="M123.2492,87.6178678 L118.0992,90.3258678 C117.4902,90.6448678 116.7802,90.1298678 116.8962,89.4528678 L117.8802,83.7168678 L113.7132,79.6548678 C113.2212,79.1758678 113.4922,78.3408678 114.1722,78.2418678 L119.9312,77.4048678 L122.5062,72.1868678 C122.8102,71.5708678 123.6872,71.5708678 123.9922,72.1868678 L126.5672,77.4048678 L132.3262,78.2418678 C133.0062,78.3408678 133.2762,79.1758678 132.7852,79.6548678 L128.6182,83.7168678 L129.6022,89.4528678 C129.7182,90.1298678 129.0082,90.6448678 128.3992,90.3258678 L123.2492,87.6178678 Z" id="Fill-54" fill="#E54661"></path>
                            <polygon id="Fill-56" fill="#A3DBEC" points="24.1516 73.7676678 78.9296 73.7676678 78.9296 66.6356678 24.1516 66.6356678"></polygon>
                            <polygon id="Fill-58" fill="#A3DBEC" points="24.1516 89.5526678 78.9296 89.5526678 78.9296 82.4206678 24.1516 82.4206678"></polygon>
                            <polygon id="Fill-59" fill="#A3DBEC" points="24.1516 105.338668 78.9296 105.338668 78.9296 98.2066678 24.1516 98.2066678"></polygon>
                            <path d="M29.4435,116.712568 C29.3235,116.382568 29.1085,116.108568 28.7995,115.893568 C28.4915,115.677568 28.1315,115.568568 27.7245,115.568568 C27.3395,115.568568 26.9945,115.665568 26.6845,115.857568 C26.3765,116.049568 26.1325,116.313568 25.9565,116.649568 C25.7795,116.984568 25.6905,117.359568 25.6905,117.774568 C25.6905,118.188568 25.7795,118.559568 25.9565,118.885568 C26.1325,119.212568 26.3765,119.469568 26.6845,119.654568 C26.9945,119.841568 27.3395,119.934568 27.7245,119.934568 C28.1265,119.934568 28.4895,119.832568 28.8135,119.628568 C29.1375,119.424568 29.3775,119.163568 29.5335,118.845568 L30.6045,119.349568 C30.3585,119.883568 29.9785,120.305568 29.4655,120.613568 C28.9535,120.922568 28.3725,121.077568 27.7245,121.077568 C27.1425,121.077568 26.6065,120.930568 26.1185,120.636568 C25.6295,120.342568 25.2405,119.941568 24.9525,119.435568 C24.6645,118.928568 24.5205,118.374568 24.5205,117.774568 C24.5205,117.174568 24.6645,116.619568 24.9525,116.108568 C25.2405,115.599568 25.6305,115.195568 26.1225,114.899568 C26.6145,114.602568 27.1485,114.453568 27.7245,114.453568 C28.2885,114.453568 28.7665,114.563568 29.1605,114.781568 C29.5525,115.000568 29.8545,115.249568 30.0645,115.528568 C30.2745,115.808568 30.4275,116.069568 30.5235,116.316568 L29.4435,116.712568 Z" id="Fill-60" fill="#007CAB"></path>
                            <path d="M32.5305,120.960668 C32.2135,120.960668 31.9755,120.856668 31.8195,120.649668 C31.6635,120.442668 31.5865,120.159668 31.5865,119.799668 L31.5865,114.579668 L32.6565,114.579668 L32.6565,119.637668 C32.6565,119.793668 32.6895,119.892668 32.7565,119.934668 C32.8215,119.976668 32.9265,119.997668 33.0705,119.997668 L33.5115,120.006668 L33.5115,120.969668 L32.5305,120.960668 Z" id="Fill-61" fill="#007CAB"></path>
                            <path d="M36.7199,119.965568 C36.9139,119.819568 37.0249,119.592568 37.0479,119.286568 L37.0479,119.034568 C36.8629,119.040568 36.5469,119.043568 36.1039,119.043568 C35.8219,119.043568 35.6039,119.099568 35.4499,119.209568 C35.2979,119.320568 35.2209,119.466568 35.2209,119.646568 C35.2209,119.832568 35.2919,119.969568 35.4329,120.056568 C35.5739,120.143568 35.7519,120.186568 35.9679,120.186568 C36.2749,120.186568 36.5249,120.112568 36.7199,119.965568 M37.1969,116.707568 C37.4699,116.836568 37.6879,117.027568 37.8489,117.278568 C38.0109,117.530568 38.0919,117.828568 38.0919,118.170568 L38.0919,121.014568 L37.0479,121.014568 L37.0479,120.636568 C36.9049,120.774568 36.7369,120.882568 36.5439,120.960568 C36.3519,121.038568 36.1489,121.077568 35.9319,121.077568 C35.4409,121.077568 35.0389,120.949568 34.7309,120.694568 C34.4219,120.440568 34.2639,120.105568 34.2579,119.691568 C34.2519,119.444568 34.3059,119.212568 34.4199,118.993568 C34.5339,118.775568 34.6969,118.599568 34.9069,118.467568 C35.0379,118.383568 35.1979,118.326568 35.3829,118.296568 C35.5699,118.266568 35.8059,118.248568 36.0939,118.242568 L36.7789,118.242568 C36.9699,118.242568 37.0569,118.155568 37.0389,117.981568 C36.9859,117.621568 36.7029,117.441568 36.1939,117.441568 C35.9649,117.441568 35.7629,117.487568 35.5859,117.580568 C35.4079,117.674568 35.2569,117.828568 35.1309,118.044568 L34.3389,117.603568 C34.5739,117.201568 34.8559,116.919568 35.1859,116.757568 C35.5149,116.595568 35.8869,116.514568 36.3009,116.514568 C36.6249,116.514568 36.9239,116.578568 37.1969,116.707568" id="Fill-62" fill="#007CAB"></path>
                            <path d="M41.3508,117.863968 C41.3088,117.719968 41.2228,117.607968 41.0938,117.526968 C40.9648,117.445968 40.8048,117.404968 40.6128,117.404968 C40.4558,117.404968 40.3268,117.440968 40.2208,117.512968 C40.1168,117.585968 40.0518,117.677968 40.0278,117.792968 C40.0158,117.893968 40.0388,117.983968 40.0948,118.061968 C40.1528,118.139968 40.2468,118.193968 40.3788,118.223968 C40.5108,118.259968 40.6098,118.284968 40.6758,118.296968 C40.9458,118.374968 41.1378,118.422968 41.2518,118.439968 C41.6228,118.536968 41.8888,118.693968 42.0478,118.912968 C42.2068,119.131968 42.2868,119.406968 42.2868,119.735968 C42.2868,120.132968 42.1348,120.456968 41.8318,120.708968 C41.5298,120.960968 41.1438,121.086968 40.6758,121.086968 C40.2128,121.086968 39.8148,120.971968 39.4788,120.744968 C39.1428,120.515968 38.9418,120.218968 38.8748,119.852968 L39.8738,119.690968 C39.9048,119.829968 39.9918,119.944968 40.1358,120.037968 C40.2798,120.130968 40.4588,120.176968 40.6758,120.176968 C40.8728,120.176968 41.0258,120.140968 41.1298,120.068968 C41.2358,119.997968 41.2878,119.891968 41.2878,119.754968 C41.2878,119.574968 41.1468,119.451968 40.8648,119.384968 C40.6488,119.331968 40.4638,119.284968 40.3108,119.245968 C40.1588,119.206968 40.0698,119.183968 40.0458,119.177968 C39.7338,119.093968 39.4878,118.937968 39.3078,118.710968 C39.1278,118.481968 39.0378,118.215968 39.0378,117.909968 C39.0378,117.650968 39.1068,117.414968 39.2448,117.197968 C39.3828,116.981968 39.5738,116.812968 39.8168,116.689968 C40.0588,116.566968 40.3248,116.505968 40.6128,116.505968 C41.0448,116.505968 41.4178,116.608968 41.7338,116.815968 C42.0478,117.022968 42.2448,117.297968 42.3228,117.638968 L41.3508,117.863968 Z" id="Fill-63" fill="#007CAB"></path>
                            <path d="M45.4094,117.863968 C45.3674,117.719968 45.2814,117.607968 45.1524,117.526968 C45.0234,117.445968 44.8634,117.404968 44.6714,117.404968 C44.5144,117.404968 44.3854,117.440968 44.2794,117.512968 C44.1754,117.585968 44.1104,117.677968 44.0864,117.792968 C44.0744,117.893968 44.0974,117.983968 44.1534,118.061968 C44.2114,118.139968 44.3054,118.193968 44.4374,118.223968 C44.5694,118.259968 44.6684,118.284968 44.7344,118.296968 C45.0044,118.374968 45.1964,118.422968 45.3104,118.439968 C45.6814,118.536968 45.9474,118.693968 46.1064,118.912968 C46.2654,119.131968 46.3454,119.406968 46.3454,119.735968 C46.3454,120.132968 46.1934,120.456968 45.8904,120.708968 C45.5884,120.960968 45.2024,121.086968 44.7344,121.086968 C44.2714,121.086968 43.8734,120.971968 43.5374,120.744968 C43.2014,120.515968 43.0004,120.218968 42.9334,119.852968 L43.9324,119.690968 C43.9634,119.829968 44.0504,119.944968 44.1944,120.037968 C44.3384,120.130968 44.5174,120.176968 44.7344,120.176968 C44.9314,120.176968 45.0844,120.140968 45.1884,120.068968 C45.2944,119.997968 45.3464,119.891968 45.3464,119.754968 C45.3464,119.574968 45.2054,119.451968 44.9234,119.384968 C44.7074,119.331968 44.5224,119.284968 44.3694,119.245968 C44.2174,119.206968 44.1284,119.183968 44.1044,119.177968 C43.7924,119.093968 43.5464,118.937968 43.3664,118.710968 C43.1864,118.481968 43.0964,118.215968 43.0964,117.909968 C43.0964,117.650968 43.1654,117.414968 43.3034,117.197968 C43.4414,116.981968 43.6324,116.812968 43.8754,116.689968 C44.1174,116.566968 44.3834,116.505968 44.6714,116.505968 C45.1034,116.505968 45.4764,116.608968 45.7924,116.815968 C46.1064,117.022968 46.3034,117.297968 46.3814,117.638968 L45.4094,117.863968 Z" id="Fill-64" fill="#007CAB"></path>
                            <path d="M52.2541,117.896168 C52.0471,117.647168 51.7731,117.522168 51.4301,117.522168 C51.0821,117.522168 50.8021,117.648168 50.5891,117.900168 C50.3761,118.152168 50.2701,118.461168 50.2701,118.828168 C50.2701,119.055168 50.3171,119.265168 50.4131,119.458168 C50.5091,119.649168 50.6461,119.804168 50.8221,119.920168 C51.0001,120.038168 51.2021,120.096168 51.4301,120.096168 C51.7781,120.096168 52.0541,119.978168 52.2581,119.741168 C52.4621,119.503168 52.5651,119.200168 52.5651,118.828168 C52.5651,118.456168 52.4611,118.145168 52.2541,117.896168 M53.3241,119.961168 C53.1301,120.309168 52.8651,120.584168 52.5321,120.785168 C52.1991,120.986168 51.8321,121.086168 51.4301,121.086168 C51.0341,121.086168 50.6671,120.983168 50.3281,120.776168 C49.9881,120.569168 49.7201,120.292168 49.5231,119.943168 C49.3241,119.595168 49.2261,119.220168 49.2261,118.818168 C49.2261,118.404168 49.3221,118.020168 49.5181,117.667168 C49.7131,117.312168 49.9801,117.032168 50.3181,116.825168 C50.6571,116.618168 51.0281,116.514168 51.4301,116.514168 C51.8321,116.514168 52.1991,116.618168 52.5321,116.825168 C52.8651,117.032168 53.1301,117.311168 53.3241,117.662168 C53.5201,118.013168 53.6171,118.398168 53.6171,118.818168 C53.6171,119.232168 53.5201,119.614168 53.3241,119.961168" id="Fill-65" fill="#007CAB"></path>
                            <path d="M55.7229,116.649168 L56.5419,116.649168 L56.5419,117.549168 L55.7229,117.549168 L55.7229,120.969168 L54.6609,120.969168 C54.6609,119.637168 54.6589,118.498168 54.6519,117.549168 L54.0579,117.549168 L54.0579,116.649168 L54.6519,116.649168 L54.6519,115.993168 C54.6519,115.680168 54.7179,115.408168 54.8499,115.173168 C54.9819,114.939168 55.1629,114.758168 55.3949,114.628168 C55.6249,114.500168 55.8849,114.435168 56.1729,114.435168 C56.3289,114.435168 56.5029,114.460168 56.6959,114.507168 L56.4789,115.498168 C56.4079,115.479168 56.3349,115.470168 56.2629,115.470168 C56.0949,115.470168 55.9609,115.526168 55.8629,115.637168 C55.7639,115.748168 55.7139,115.896168 55.7139,116.083168 C55.7139,116.293168 55.7169,116.481168 55.7229,116.649168" id="Fill-66" fill="#007CAB"></path>
                            <path d="M63.7688,117.616868 C63.6128,117.913868 63.3908,118.181868 63.1028,118.422868 L62.3288,118.988868 C61.6028,119.511868 61.1888,119.816868 61.0868,119.907868 L63.8498,119.888868 L63.8498,120.951868 L59.4218,120.969868 C59.4218,120.543868 59.4868,120.187868 59.6158,119.902868 C59.7448,119.617868 59.9978,119.343868 60.3758,119.079868 C60.6398,118.881868 60.9548,118.655868 61.3208,118.403868 C61.4228,118.326868 61.6278,118.178868 61.9378,117.958868 C62.2468,117.739868 62.4248,117.602868 62.4728,117.549868 C62.7728,117.291868 62.9288,116.988868 62.9408,116.639868 C62.9348,116.298868 62.8318,116.021868 62.6298,115.811868 C62.4288,115.601868 62.1578,115.494868 61.8158,115.487868 C61.4618,115.494868 61.1838,115.595868 60.9838,115.794868 C60.7828,115.992868 60.6818,116.259868 60.6818,116.595868 L59.6198,116.595868 C59.6198,116.180868 59.7108,115.811868 59.8948,115.487868 C60.0778,115.164868 60.3338,114.909868 60.6648,114.722868 C60.9938,114.537868 61.3718,114.440868 61.7978,114.434868 L61.8158,114.434868 L61.8338,114.434868 C62.2478,114.440868 62.6188,114.538868 62.9458,114.727868 C63.2728,114.916868 63.5288,115.174868 63.7148,115.501868 C63.9008,115.828868 63.9988,116.195868 64.0118,116.603868 L64.0118,116.639868 L64.0118,116.676868 C64.0058,117.006868 63.9248,117.319868 63.7688,117.616868" id="Fill-67" fill="#007CAB"></path>
                            <path d="M69.4299,117.765368 C69.4299,117.160368 69.3039,116.661368 69.0519,116.271368 C68.9029,116.043368 68.7159,115.870368 68.4939,115.753368 C68.2719,115.637368 68.0229,115.576368 67.7469,115.569368 C67.4709,115.576368 67.2209,115.638368 66.9949,115.758368 C66.7709,115.878368 66.5829,116.052368 66.4329,116.280368 C66.1869,116.676368 66.0639,117.171368 66.0639,117.765368 C66.0639,118.269368 66.1549,118.702368 66.3339,119.061368 C66.4779,119.355368 66.6719,119.578368 66.9139,119.732368 C67.1579,119.884368 67.4349,119.964368 67.7469,119.970368 C68.0299,119.964368 68.2849,119.898368 68.5169,119.772368 C68.7469,119.646368 68.9349,119.460368 69.0789,119.214368 C69.3129,118.848368 69.4299,118.366368 69.4299,117.765368 M70.5909,117.765368 C70.5909,118.569368 70.4229,119.247368 70.0869,119.799368 C69.8409,120.207368 69.5219,120.521368 69.1279,120.740368 C68.7359,120.958368 68.2839,121.071368 67.7739,121.078368 L67.7469,121.078368 L67.7289,121.078368 C67.1829,121.071368 66.7009,120.942368 66.2839,120.690368 C65.8669,120.438368 65.5419,120.081368 65.3079,119.619368 C65.0439,119.091368 64.9119,118.473368 64.9119,117.765368 C64.9119,116.967368 65.0769,116.292368 65.4079,115.741368 C65.6539,115.332368 65.9739,115.017368 66.3699,114.795368 C66.7659,114.574368 67.2189,114.459368 67.7289,114.453368 L67.7469,114.453368 L67.7739,114.453368 C68.2479,114.459368 68.6759,114.560368 69.0569,114.754368 C69.4379,114.950368 69.7509,115.227368 69.9969,115.587368 C70.3929,116.158368 70.5909,116.883368 70.5909,117.765368" id="Fill-68" fill="#007CAB"></path>
                            <path d="M73.6604,114.462568 L73.6604,120.969568 L72.5714,120.969568 L72.5714,116.153568 C72.4694,116.190568 72.3584,116.208568 72.2384,116.208568 L71.3564,116.208568 L71.3564,115.137568 L72.1934,115.137568 C72.3124,115.137568 72.4064,115.103568 72.4724,115.033568 C72.5384,114.964568 72.5714,114.840568 72.5714,114.660568 L72.5714,114.462568 L73.6604,114.462568 Z" id="Fill-69" fill="#007CAB"></path>
                            <path d="M77.9211,118.084668 C78.1281,117.980668 78.2951,117.822668 78.4211,117.611668 C78.5471,117.401668 78.6091,117.149668 78.6091,116.855668 C78.6091,116.562668 78.5481,116.312668 78.4261,116.105668 C78.3031,115.897668 78.1421,115.741668 77.9431,115.637668 C77.7461,115.531668 77.5331,115.479668 77.3051,115.479668 C77.0771,115.479668 76.8581,115.533668 76.6481,115.641668 C76.4381,115.749668 76.2661,115.908668 76.1301,116.118668 C75.9951,116.328668 75.9281,116.577668 75.9281,116.865668 C75.9281,117.152668 75.9911,117.401668 76.1171,117.611668 C76.2431,117.822668 76.4081,117.980668 76.6111,118.084668 C76.8161,118.189668 77.0311,118.242668 77.2601,118.242668 C77.4941,118.242668 77.7141,118.189668 77.9211,118.084668 M79.8601,117.666668 C79.8601,118.086668 79.8091,118.492668 79.7031,118.885668 C79.5991,119.278668 79.4431,119.631668 79.2401,119.942668 C78.9881,120.320668 78.6701,120.608668 78.2861,120.807668 C77.9011,121.005668 77.4971,121.104668 77.0711,121.104668 C76.6571,121.104668 76.2671,121.011668 75.9001,120.825668 C75.5351,120.639668 75.2371,120.369668 75.0101,120.015668 L75.9101,119.475668 C76.0661,119.661668 76.2471,119.801668 76.4541,119.894668 C76.6611,119.986668 76.8791,120.033668 77.1071,120.033668 C77.3591,120.033668 77.5981,119.976668 77.8221,119.861668 C78.0471,119.748668 78.2291,119.589668 78.3671,119.385668 C78.5351,119.175668 78.6581,118.905668 78.7351,118.575668 C78.5561,118.803668 78.3321,118.976668 78.0661,119.092668 C77.7981,119.209668 77.5121,119.268668 77.2061,119.268668 C76.8161,119.262668 76.4421,119.166668 76.0851,118.980668 C75.7291,118.794668 75.4361,118.522668 75.2081,118.165668 C74.9801,117.809668 74.8661,117.390668 74.8661,116.910668 C74.8661,116.430668 74.9831,116.001668 75.2171,115.623668 C75.4511,115.245668 75.7551,114.951668 76.1301,114.741668 C76.5051,114.531668 76.8941,114.426668 77.2961,114.426668 C77.8781,114.426668 78.3681,114.586668 78.7681,114.907668 C79.1661,115.229668 79.4561,115.665668 79.6361,116.217668 C79.7861,116.667668 79.8601,117.149668 79.8601,117.666668" id="Fill-70" fill="#007CAB"></path>
                        </g>
                        <path d="M271.9431,83.0734 L266.5031,96.6074 L263.8881,96.6074 L265.6571,92.2054 L261.5051,83.0734 L264.1381,83.0734 L266.8491,89.2244 L269.3291,83.0734 L271.9431,83.0734 Z M257.6401,83.0734 L260.1011,83.0734 L260.1011,92.3014 L257.6401,92.3014 L257.6401,91.2434 C257.0381,92.1024 256.1721,92.5314 255.0451,92.5314 C253.7121,92.5314 252.6731,92.1854 251.9301,91.4934 C251.1871,90.8014 250.8151,89.5774 250.8151,87.8214 L250.8151,83.0734 L253.2761,83.0734 L253.2761,87.6684 C253.2761,88.5134 253.4681,89.1674 253.8531,89.6294 C254.2371,90.0904 254.7371,90.3204 255.3521,90.3204 C255.9671,90.3204 256.5031,90.0774 256.9581,89.5904 C257.4131,89.1034 257.6401,88.3344 257.6401,87.2834 L257.6401,83.0734 Z M245.4621,89.4944 C245.0451,89.7624 244.5741,89.8974 244.0481,89.8974 L240.7801,89.8974 L240.7801,86.5714 L243.9911,86.5714 C244.6311,86.5714 245.1411,86.7194 245.5191,87.0134 C245.8971,87.3084 246.0871,87.7134 246.0871,88.2254 C246.0871,88.8024 245.8781,89.2244 245.4621,89.4944 L245.4621,89.4944 Z M240.7801,81.0534 L243.8381,81.0534 C244.5291,81.0534 245.0481,81.2144 245.3941,81.5344 C245.7411,81.8554 245.9141,82.2464 245.9141,82.7084 C245.9141,83.2204 245.7501,83.6364 245.4231,83.9574 C245.0961,84.2774 244.5681,84.4374 243.8381,84.4374 L240.7801,84.4374 L240.7801,81.0534 Z M247.3751,85.4754 C248.2581,84.7324 248.7011,83.7784 248.7011,82.6114 C248.7011,81.3804 248.2681,80.4164 247.4031,79.7174 C246.5391,79.0184 245.3491,78.6694 243.8381,78.6694 L240.7801,78.6504 L238.2621,78.6504 L238.2621,92.3014 L240.7801,92.3014 L244.2031,92.3014 C245.6641,92.2754 246.8041,91.9204 247.6251,91.2334 C248.4451,90.5484 248.8551,89.6024 248.8551,88.3984 C248.8551,87.7964 248.7231,87.2454 248.4611,86.7454 C248.1981,86.2454 247.8361,85.8224 247.3751,85.4754 L247.3751,85.4754 Z" id="Fill-73" fill="#00274B"></path>
                    </g>
                </g>
                <g id="Group-19">
                    <polygon id="Fill-1" fill="#175D8B" points="115.14492 -0.000194000006 17.2389375 76.3475383 17.9460675 79.0004883 129.475701 71.4179981 234.623704 41.6001972 233.934034 39.0132072 115.1488 -0.000194000006"></polygon>
                    <polygon id="Fill-2" fill="url(#linearGradient-9)" points="115.145017 -0.000194000006 114.793877 0.275286008 17.2390345 76.3475383 17.9461645 79.0004883 128.729868 64.7114179 131.381848 62.4939978 115.979217 4.72079614 116.393407 4.61021614 115.166357 0.00562600017 115.148897 -0.000194000006"></polygon>
                    <polygon id="Fill-3" fill="url(#linearGradient-10)" points="116.393601 4.61011914 115.951281 4.72845914 131.086192 62.9488309 234.623995 41.6001002 233.934325 39.0131102 115.166551 0.00552900016"></polygon>
                    <polygon id="Fill-4" fill="url(#linearGradient-11)" points="17.9593565 78.9914673 132.94025 83.5873275 234.624383 41.5999062 115.852729 2.64761508"></polygon>
                    <g id="Group-18" transform="translate(0.000000, 34.499021)">
                        <path d="M182.717256,29.9104359 C179.182576,13.4281954 151.747095,5.33257516 121.446235,11.8306053 C91.1385837,18.3305755 69.441623,36.9662161 72.9753332,53.4445766" id="Fill-5" fill="#000000"></path>
                        <path d="M132.94025,49.0883064 C166.3974,39.4560571 193.902812,49.1174064 193.021082,45.8106764 C185.340621,17.0026455 184.357041,-7.66736523 121.86285,6.98157521 C55.5051476,22.5374657 70.1589381,37.6510361 77.4145383,72.2674271 C78.4543783,76.1677972 99.4830998,58.7205558 132.94025,49.0883064 Z" id="Fill-7" fill="url(#linearGradient-12)"></path>
                        <path d="M70.7315291,0.137837004 C70.7315291,0.137837004 56.5433387,10.4537873 52.7516086,25.1900277 C48.3051284,42.4725183 47.8657184,59.6919588 37.6584081,70.4618691 C27.4510978,81.2327494 16.8683975,83.0476194 16.8683975,83.0476194 L16.1166475,80.2287994 C16.1166475,80.2287994 37.9717181,75.4088692 43.4832583,50.7999685 C46.9781684,35.195578 47.4932384,5.46507716 70.7315291,0.137837004" id="Fill-9" fill="url(#linearGradient-13)"></path>
                        <path d="M0.734290022,87.2758496 C0.734290022,87.2758496 13.7662404,87.7705496 21.7357606,84.3008595 C29.7062509,80.8311694 32.660871,76.2721692 32.283541,74.8860392 C31.9091209,73.4989392 28.9370409,70.3192791 19.0003606,73.8859692 C9.06465027,77.4545993 0.493730015,77.9483293 0.493730015,77.9483293 C-0.201760006,80.2016394 -0.198850006,83.2241595 0.734290022,87.2758496" id="Fill-11" fill="url(#linearGradient-14)"></path>
                        <path d="M0.0968060029,79.9080204 C2.50143607,79.9148104 6.02544618,79.7373004 9.72017629,78.9069803 C16.3598265,77.4131803 20.8877866,75.3984902 20.8877866,75.3984902 C20.8877866,75.3984902 15.6245665,78.5752403 7.08856621,80.4948704 C3.89629611,81.2136404 1.62261605,81.5851504 0.00562600017,81.7743004 C-0.00116400003,81.1108204 0.0298760009,80.4900204 0.0968060029,79.9080204" id="Fill-14" fill="#0E4F7E"></path>
                        <path d="M0.226592007,84.5582005 C0.865822026,84.5717805 1.51669204,84.5698405 2.17920206,84.5475305 C8.97987226,84.3292805 13.8065924,83.2011705 13.8065924,83.2011705 C13.8065924,83.2011705 8.51233225,85.1499005 0.388582011,85.5631205 C0.32747201,85.2216805 0.272182008,84.8850905 0.226592007,84.5582005" id="Fill-16" fill="#0E4F7E"></path>
                    </g>
                </g>
            </g>
        </g>
    </g>
</svg>